HIERARCHY
ROOT Hips
{
	OFFSET 0.00000 0.00000 0.00000
	CHANNELS 6 Xposition Yposition Zposition Zrotation Yrotation Xrotation 
	JOINT LHipJoint
	{
		OFFSET 0 0 0
		CHANNELS 3 Zrotation Yrotation Xrotation
		JOINT LeftHip
		{
			OFFSET 1.75344 -1.53157 0.77399
			CHANNELS 3 Zrotation Yrotation Xrotation
			JOINT LeftKnee
			{
				OFFSET 2.25415 -6.19323 0.00000
				CHANNELS 3 Zrotation Yrotation Xrotation
				JOINT LeftAnkle
				{
					OFFSET 2.30342 -6.32861 0.00000
					CHANNELS 3 Zrotation Yrotation Xrotation
					JOINT LeftToe
					{
						OFFSET 0.10958 -0.30108 1.49206
						CHANNELS 3 Zrotation Yrotation Xrotation
						End Site
						{
							OFFSET 0.00000 -0.00000 0.77783
						}
					}
				}
			}
		}
	}
	JOINT RHipJoint
	{
		OFFSET 0 0 0
		CHANNELS 3 Zrotation Yrotation Xrotation
		JOINT RightHip
		{
			OFFSET -1.81912 -1.53156 0.77399
			CHANNELS 3 Zrotation Yrotation Xrotation
			JOINT RightKnee
			{
				OFFSET -2.22882 -6.12365 0.00000
				CHANNELS 3 Zrotation Yrotation Xrotation
				JOINT RightAnkle
				{
					OFFSET -2.21943 -6.09785 0.00000
					CHANNELS 3 Zrotation Yrotation Xrotation
					JOINT RightToe
					{
						OFFSET -0.18931 -0.52012 1.59379
						CHANNELS 3 Zrotation Yrotation Xrotation
						End Site
						{
							OFFSET -0.00000 -0.00000 0.84686
						}
					}
				}
			}
		}
	}
	JOINT lowerback
	{
		OFFSET 0 0 0
		CHANNELS 3 Zrotation Yrotation Xrotation
		JOINT Chest
		{
			OFFSET -0.00200 1.66634 -0.14248
			CHANNELS 3 Zrotation Yrotation Xrotation
			JOINT Chest2
			{
				OFFSET -0.00875 1.64542 0.09514
				CHANNELS 3 Zrotation Yrotation Xrotation
				JOINT lowerneck
				{
					OFFSET 0 0 0
					CHANNELS 3 Zrotation Yrotation Xrotation
					JOINT Neck
					{
						OFFSET 0.02257 1.59605 0.00839
						CHANNELS 3 Zrotation Yrotation Xrotation
						JOINT Head
						{
							OFFSET -0.10214 1.57530 -0.23335
							CHANNELS 3 Zrotation Yrotation Xrotation
							End Site
							{
								OFFSET -0.03588 1.60717 -0.08062
							}
						}
					}
				}
				JOINT LeftCollar
				{
					OFFSET 0 0 0
					CHANNELS 3 Zrotation Yrotation Xrotation
					JOINT LeftShoulder
					{
						OFFSET 2.54983 1.10186 0.40078
CHANNELS 3 Zrotation Xrotation Yrotation
						JOINT LeftElbow
						{
OFFSET 0 -4.288400 0.000000
CHANNELS 3 Zrotation Xrotation Yrotation
							JOINT LeftWrist
							{
OFFSET 0 -3.065520 -0.000000
CHANNELS 3 Zrotation Xrotation Yrotation
								JOINT lhand
								{
									OFFSET 0 0 0
CHANNELS 3 Zrotation Xrotation Yrotation
									JOINT LFingers
									{
OFFSET 0 -0.753040 0.000000
CHANNELS 3 Zrotation Xrotation Yrotation
										End Site
										{
OFFSET 0 -0.607120 0.000000
										}
									}
								}
								JOINT LThumb
								{
OFFSET 0 0.000000 0.000000
CHANNELS 3 Zrotation Xrotation Yrotation
									End Site
									{
OFFSET 0 -0.616390 0.616390
									}
								}
							}
						}
					}
				}
				JOINT RightCollar
				{
					OFFSET 0 0 0
					CHANNELS 3 Zrotation Yrotation Xrotation
					JOINT RightShoulder
					{
						OFFSET -2.60909 1.35448 0.21802
CHANNELS 3 Zrotation Xrotation Yrotation
						JOINT RightElbow
						{
OFFSET 0 -4.521720 -0.000000
CHANNELS 3 Zrotation Xrotation Yrotation
							JOINT RightWrist
							{
OFFSET 0 -2.891400 0.000000
CHANNELS 3 Zrotation Xrotation Yrotation
								JOINT rhand
								{
									OFFSET 0 0 0
CHANNELS 3 Zrotation Xrotation Yrotation
									JOINT RFingers
									{
OFFSET 0 -0.680540 0.000000
CHANNELS 3 Zrotation Xrotation Yrotation
										End Site
										{
OFFSET 0 -0.548670 0.000000
										}
									}
								}
								JOINT RThumb
								{
OFFSET 0 0.000000 0.000000
CHANNELS 3 Zrotation Xrotation Yrotation
									End Site
									{
OFFSET 0 -0.557050 0.557050
									}
								}
							}
						}
					}
				}
			}
		}
	}
}
MOTION
Frames: 10
Frame Time: 0.008333333333333333
8.437112 15.570051 23.202797 -179.654816 3.007619 -176.268399 0.000000 0.000000 0.000000 -24.790192 -20.145373 -2.745573 1.340506 7.330686 20.698905 0.928563 10.879459 -25.171471 1.349120 -7.353009 -20.765590 0.000000 0.000000 0.000000 26.123878 16.191699 0.605361 -0.795940 -5.694541 15.900686 0.514701 -20.125444 -24.126062 -0.001315 -0.236274 0.649141 0.872191 0.869729 8.588078 -0.178005 1.278207 -3.327703 -0.880052 0.580040 -8.322888 -5.646965 -2.104275 -7.624671 6.358246 -2.643022 5.504885 3.011194 -1.174351 3.370453 0.000000 0.000000 0.000000 8.444588 12.364093 -29.089822 17.860147 -27.977656 4.483423 -0.512468 13.729502 34.963129 0.000000 0.000000 0.000000 -7.125000 0.000000 0.000000 -18.087610 -3.491650 -20.161986 0.000000 0.000000 0.000000 -9.683305 13.646133 44.382119 -17.817627 -27.922970 -4.463485 -11.643525 35.385750 53.213889 0.000000 0.000000 0.000000 7.125000 0.000000 0.000000 -13.405530 -8.473955 -168.383054
8.437618 15.570691 23.203608 -179.658095 3.049224 -176.234679 0.000000 0.000000 0.000000 -24.760132 -20.074567 -2.884754 1.352582 7.362251 20.793116 0.943598 10.803602 -25.224877 1.381178 -7.436644 -21.015604 0.000000 0.000000 0.000000 26.088646 16.144923 0.469437 -0.805102 -5.726456 15.992788 0.478463 -19.946159 -24.167337 -0.002343 -0.293021 0.805120 0.855527 0.867950 8.807173 -0.163421 1.278793 -3.410750 -0.860999 0.579933 -8.541181 -5.732673 -2.090704 -7.635942 6.430692 -2.623317 5.603373 3.055610 -1.163056 3.409753 0.000000 0.000000 0.000000 8.367762 12.436197 -28.872965 17.821919 -27.928516 4.465545 -0.436245 13.808615 35.110453 0.000000 0.000000 0.000000 -7.125000 0.000000 0.000000 -18.049995 -3.637726 -20.159742 0.000000 0.000000 0.000000 -9.735261 13.786368 44.270433 -17.825038 -27.932507 -4.466974 -12.629907 36.255904 52.633757 0.000000 0.000000 0.000000 7.125000 0.000000 0.000000 -12.960758 -8.784461 -168.874160
8.438188 15.570112 23.204640 -179.648913 3.135092 -176.173865 0.000000 0.000000 0.000000 -24.699341 -19.956917 -3.079371 1.364419 7.393059 20.885154 0.957061 10.687205 -25.230318 1.382426 -7.439804 -21.025095 0.000000 0.000000 0.000000 26.054139 16.112625 0.293823 -0.815967 -5.763982 16.101273 0.432752 -19.717300 -24.217402 -0.005977 -0.496012 1.362886 0.858804 0.875052 8.912404 -0.158077 1.291182 -3.455110 -0.861944 0.585111 -8.650569 -5.803114 -2.076234 -7.584525 6.529798 -2.604579 5.600742 3.104917 -1.151747 3.402148 0.000000 0.000000 0.000000 8.290213 12.466889 -28.630291 17.796921 -27.896316 4.453859 -0.429643 13.965533 35.155882 0.000000 0.000000 0.000000 -7.125000 0.000000 0.000000 -18.047304 -3.681429 -20.169562 0.000000 0.000000 0.000000 -9.747737 13.812699 44.069891 -17.835157 -27.945512 -4.471685 -12.445457 36.411049 52.580378 0.000000 0.000000 0.000000 7.125000 0.000000 0.000000 -13.023988 -8.871387 -168.835430
8.438103 15.568076 23.204216 -179.620078 3.253569 -176.109411 0.000000 0.000000 0.000000 -24.617077 -19.772883 -3.296480 1.376546 7.424523 20.979376 0.959605 10.573647 -25.152125 1.355796 -7.370685 -20.818333 0.000000 0.000000 0.000000 26.049474 16.152316 0.137352 -0.828434 -5.806895 16.225263 0.414772 -19.598060 -24.190602 -0.010048 -0.646376 1.776240 0.875766 0.890232 8.964646 -0.144508 1.316455 -3.495393 -0.862962 0.596475 -8.724437 -5.760880 -2.083527 -7.421016 6.470517 -2.619251 5.507199 3.073283 -1.163365 3.336168 0.000000 0.000000 0.000000 8.192938 12.504204 -28.388927 17.784369 -27.880203 4.447922 -0.459580 14.123107 35.231955 0.000000 0.000000 0.000000 -7.125000 0.000000 0.000000 -18.064266 -3.751480 -20.211627 0.000000 0.000000 0.000000 -9.734592 13.808459 43.930127 -17.769939 -27.861637 -4.441239 -8.437600 33.232869 53.995570 0.000000 0.000000 0.000000 7.125000 0.000000 0.000000 -14.733463 -8.460662 -167.149362
8.438100 15.566775 23.204771 -179.621449 3.293757 -176.052304 0.000000 0.000000 0.000000 -24.560120 -19.621504 -3.501343 1.390307 7.460150 21.085925 0.988926 10.276082 -25.131485 1.247530 -7.080088 -19.953503 0.000000 0.000000 0.000000 26.019258 16.151922 -0.027037 -0.842288 -5.853971 16.361416 0.414018 -19.553272 -24.123801 -0.006037 -0.495830 1.362539 0.840888 0.880840 9.135832 -0.127918 1.304991 -3.586536 -0.828713 0.592083 -8.925167 -5.645173 -2.106005 -7.369674 6.297681 -2.653842 5.525415 2.988586 -1.186087 3.327006 0.000000 0.000000 0.000000 8.123420 12.602257 -28.256385 17.779655 -27.874130 4.445741 -0.493436 14.224433 35.350723 0.000000 0.000000 0.000000 -7.125000 0.000000 0.000000 -18.084084 -3.861778 -20.269284 0.000000 0.000000 0.000000 -9.739488 13.907896 43.880735 -17.703008 -27.775150 -4.409976 -9.426686 33.840398 53.516478 0.000000 0.000000 0.000000 7.125000 0.000000 0.000000 -14.317951 -8.692739 -167.605669
8.438034 15.566633 23.205099 -179.619342 3.291302 -175.984187 0.000000 0.000000 0.000000 -24.492519 -19.459102 -3.729517 1.403665 7.494345 21.188368 1.002144 10.061863 -25.056206 1.242137 -7.066861 -19.913588 0.000000 0.000000 0.000000 25.986321 16.105388 -0.226883 -0.858522 -5.908784 16.519968 0.409349 -19.476560 -24.042024 -0.002509 -0.301633 0.828864 0.854229 0.850693 9.023006 -0.130081 1.262599 -3.508097 -0.828110 0.571532 -8.774288 -5.542226 -2.109804 -7.466143 6.177773 -2.655719 5.442727 2.925947 -1.188841 3.311082 0.000000 0.000000 0.000000 8.074780 12.432043 -28.106609 17.739099 -27.821805 4.426829 -0.358145 14.249820 35.372614 0.000000 0.000000 0.000000 -7.125000 0.000000 0.000000 -18.013850 -3.893309 -20.191536 0.000000 0.000000 0.000000 -9.727478 13.739074 43.860435 -17.624116 -27.673146 -4.373300 -9.858645 34.126456 53.340522 0.000000 0.000000 0.000000 7.125000 0.000000 0.000000 -14.136414 -8.761357 -167.794193
8.438000 15.566495 23.204636 -179.613900 3.275647 -175.896035 0.000000 0.000000 0.000000 -24.417041 -19.277568 -3.988969 1.415717 7.525126 21.280677 0.991713 9.996328 -24.917235 1.365380 -7.389035 -20.876077 0.000000 0.000000 0.000000 25.949729 16.065699 -0.465453 -0.878526 -5.975326 16.712871 0.389011 -19.354195 -24.034902 -0.002533 -0.311247 0.855186 0.866948 0.816765 8.963098 -0.122698 1.217948 -3.477878 -0.818528 0.549810 -8.707018 -5.468861 -2.097566 -7.552699 6.065411 -2.635169 5.392862 2.873356 -1.180986 3.304108 0.000000 0.000000 0.000000 7.999888 12.329309 -27.953566 17.688759 -27.756792 4.403354 -0.143670 14.236834 35.291623 0.000000 0.000000 0.000000 -7.125000 0.000000 0.000000 -17.900193 -3.833396 -20.032992 0.000000 0.000000 0.000000 -9.748681 13.648855 43.893178 -17.575917 -27.610804 -4.350922 -9.910755 34.141402 53.284219 0.000000 0.000000 0.000000 7.125000 0.000000 0.000000 -14.112269 -8.802239 -167.828350
8.437928 15.565362 23.204172 -179.625145 3.261833 -175.792843 0.000000 0.000000 0.000000 -24.360361 -19.116131 -4.261097 1.428258 7.556953 21.376268 0.980908 9.946638 -24.788901 1.491558 -7.714946 -21.851558 0.000000 0.000000 0.000000 25.884516 16.036073 -0.744110 -0.902054 -6.052575 16.937135 0.353654 -19.197927 -24.115544 -0.004846 -0.444904 1.222468 0.857225 0.797972 8.962265 -0.119535 1.192625 -3.498339 -0.805892 0.538139 -8.729472 -5.462560 -2.077882 -7.588019 6.044650 -2.606176 5.373040 2.866325 -1.167063 3.301407 0.000000 0.000000 0.000000 7.916917 12.289038 -27.820948 17.640752 -27.694691 4.380993 -0.020316 14.243190 35.239967 0.000000 0.000000 0.000000 -7.125000 0.000000 0.000000 -17.834715 -3.794175 -19.940349 0.000000 0.000000 0.000000 -9.759334 13.658722 43.879249 -17.574378 -27.608809 -4.350202 -9.758488 34.019604 53.258313 0.000000 0.000000 0.000000 7.125000 0.000000 0.000000 -14.172227 -8.860322 -167.790124
8.437904 15.563053 23.204550 -179.661808 3.260017 -175.692636 0.000000 0.000000 0.000000 -24.338418 -19.002758 -4.521089 1.444280 7.597251 21.497437 0.988756 9.802608 -24.732162 1.512736 -7.767127 -22.008964 0.000000 0.000000 0.000000 25.787328 16.000036 -1.043730 -0.927957 -6.136585 17.181237 0.314288 -19.035188 -24.224623 -0.005719 -0.479511 1.317664 0.826704 0.802774 8.913079 -0.134973 1.193641 -3.493336 -0.804197 0.540192 -8.695536 -5.532944 -2.061765 -7.584941 6.170471 -2.583144 5.328285 2.924420 -1.151905 3.289151 0.000000 0.000000 0.000000 7.861979 12.211582 -27.738727 17.600540 -27.642603 4.362299 -0.054571 14.265802 35.356630 0.000000 0.000000 0.000000 -7.125000 0.000000 0.000000 -17.855043 -3.902476 -19.997531 0.000000 0.000000 0.000000 -9.711187 13.671176 43.745300 -17.611310 -27.656612 -4.367335 -9.603743 33.926347 53.302221 0.000000 0.000000 0.000000 7.125000 0.000000 0.000000 -14.237260 -8.853731 -167.728429
8.438300 15.560390 23.205608 -179.700078 3.280992 -175.619197 0.000000 0.000000 0.000000 -24.331443 -18.911071 -4.758177 1.466145 7.652081 21.662293 1.004334 9.642532 -24.725901 1.474644 -7.673290 -21.725954 0.000000 0.000000 0.000000 25.704400 15.952353 -1.319114 -0.955045 -6.223101 17.433026 0.285719 -18.894807 -24.269746 -0.001955 -0.283832 0.779770 0.788210 0.819898 8.828930 -0.147856 1.209067 -3.455955 -0.796667 0.550008 -8.605936 -5.626074 -2.058742 -7.544815 6.334153 -2.577688 5.247013 2.998657 -1.144969 3.259877 0.000000 0.000000 0.000000 7.835085 12.144704 -27.728485 17.576045 -27.610924 4.350954 -0.088083 14.204177 35.661625 0.000000 0.000000 0.000000 -7.125000 0.000000 0.000000 -17.879006 -4.190108 -20.111970 0.000000 0.000000 0.000000 -9.634012 13.682659 43.570205 -17.661156 -27.721176 -4.390486 -9.835519 34.108804 53.457391 0.000000 0.000000 0.000000 7.125000 0.000000 0.000000 -14.152181 -8.657999 -167.749633
